<svg xmlns="http://www.w3.org/2000/svg" width="24" height="18" viewBox="0 0 24 18">
  <defs>
    <style>
      .cls-1 {
        fill: #78808d;
        fill-rule: evenodd;
      }
    </style>
  </defs>
  <path id="디스코드" class="cls-1" d="M63.647,151.437a20.059,20.059,0,0,0-4.958-1.509,13.31,13.31,0,0,0-.635,1.277,18.654,18.654,0,0,0-5.5,0,13.381,13.381,0,0,0-.635-1.277,20.143,20.143,0,0,0-4.962,1.513,19.651,19.651,0,0,0-3.563,13.485h0a20.067,20.067,0,0,0,6.081,3.021,14.6,14.6,0,0,0,1.3-2.078,12.919,12.919,0,0,1-2.051-.969c0.172-.123.34-0.25,0.5-0.374a14.421,14.421,0,0,0,12.158,0c0.164,0.133.333,0.26,0.5,0.374a12.959,12.959,0,0,1-2.055.971,14.422,14.422,0,0,0,1.3,2.076,19.994,19.994,0,0,0,6.085-3.018h0A19.646,19.646,0,0,0,63.647,151.437ZM51.313,162.212a2.389,2.389,0,0,1,0-4.756A2.389,2.389,0,0,1,51.313,162.212Zm7.985,0a2.389,2.389,0,0,1,0-4.756,2.255,2.255,0,0,1,2.16,2.382A2.28,2.28,0,0,1,59.3,162.212Z" transform="translate(-43.313 -149.938)"/>
</svg>
