<svg xmlns="http://www.w3.org/2000/svg" width="24" height="18" viewBox="0 0 24 18">
  <defs>
    <style>
      .cls-1 {
        fill: #fff;
        fill-rule: evenodd;
      }
    </style>
  </defs>
  <path id="디스코드" class="cls-1" d="M63.647,151.437a20.017,20.017,0,0,0-4.958-1.509,13.31,13.31,0,0,0-.635,1.277,18.654,18.654,0,0,0-5.5,0,13.381,13.381,0,0,0-.635-1.277,20.143,20.143,0,0,0-4.962,1.513,19.651,19.651,0,0,0-3.563,13.485h0a20.042,20.042,0,0,0,6.081,3.02,14.529,14.529,0,0,0,1.3-2.077,12.919,12.919,0,0,1-2.051-.969c0.172-.123.34-0.25,0.5-0.374a14.428,14.428,0,0,0,12.158,0c0.164,0.133.333,0.26,0.5,0.374a12.959,12.959,0,0,1-2.055.971,14.357,14.357,0,0,0,1.3,2.075,19.968,19.968,0,0,0,6.085-3.017h0A19.645,19.645,0,0,0,63.647,151.437ZM51.313,162.211a2.388,2.388,0,0,1,0-4.755A2.388,2.388,0,0,1,51.313,162.211Zm7.985,0a2.388,2.388,0,0,1,0-4.755,2.254,2.254,0,0,1,2.16,2.382A2.279,2.279,0,0,1,59.3,162.211Z" transform="translate(-43.313 -149.938)"/>
</svg>
