<svg xmlns="http://www.w3.org/2000/svg" width="44" height="43.781" viewBox="0 0 44 43.781">
  <defs>
    <style>
      .cls-1 {
        fill: #1b1d28;
        fill-rule: evenodd;
      }
    </style>
  </defs>
  <path id="모양_607" data-name="모양 607" class="cls-1" d="M84.878,347.691L67.122,334.814a3.866,3.866,0,0,0-4.244,0L45.122,347.691A5.756,5.756,0,0,0,43,351.817v22.656a3.511,3.511,0,0,0,3.52,3.5H58v-12.94a2.993,2.993,0,0,1,3-2.986h8a2.993,2.993,0,0,1,3,2.986v12.94H83.48a3.511,3.511,0,0,0,3.52-3.5V351.817A5.756,5.756,0,0,0,84.878,347.691Z" transform="translate(-43 -334.188)"/>
</svg>
