<svg xmlns="http://www.w3.org/2000/svg" width="24" height="19.469" viewBox="0 0 24 19.469">
  <defs>
    <style>
      .cls-1 {
        fill: #78808d;
        fill-rule: evenodd;
      }
    </style>
  </defs>
  <path id="트위트" class="cls-1" d="M64.543,222.371c0.014,0.211.014,0.422,0.014,0.635A13.906,13.906,0,0,1,50.548,237v0A13.945,13.945,0,0,1,43,234.79a9.865,9.865,0,0,0,7.287-2.038,4.93,4.93,0,0,1-4.6-3.415,4.926,4.926,0,0,0,2.223-.084,4.921,4.921,0,0,1-3.95-4.821V224.37a4.89,4.89,0,0,0,2.235.615,4.92,4.92,0,0,1-1.524-6.566,13.984,13.984,0,0,0,10.148,5.138,4.928,4.928,0,0,1,8.391-4.486,9.874,9.874,0,0,0,3.127-1.194,4.932,4.932,0,0,1-2.165,2.72A9.812,9.812,0,0,0,67,219.823,10,10,0,0,1,64.543,222.371Z" transform="translate(-43 -217.531)"/>
</svg>
