<svg xmlns="http://www.w3.org/2000/svg" width="24" height="19.469" viewBox="0 0 24 19.469">
  <defs>
    <style>
      .cls-1 {
        fill: #fff;
        fill-rule: evenodd;
      }
    </style>
  </defs>
  <path id="트위트" class="cls-1" d="M64.543,222.37c0.014,0.212.014,0.423,0.014,0.636A13.906,13.906,0,0,1,50.548,237v0A13.953,13.953,0,0,1,43,234.79a9.889,9.889,0,0,0,7.287-2.038,4.93,4.93,0,0,1-4.6-3.415,4.912,4.912,0,0,0,2.223-.085,4.919,4.919,0,0,1-3.95-4.821v-0.062a4.891,4.891,0,0,0,2.235.616,4.921,4.921,0,0,1-1.524-6.567,13.977,13.977,0,0,0,10.148,5.138,4.928,4.928,0,0,1,8.391-4.485,9.9,9.9,0,0,0,3.127-1.194,4.932,4.932,0,0,1-2.165,2.72A9.812,9.812,0,0,0,67,219.823,9.995,9.995,0,0,1,64.543,222.37Z" transform="translate(-43 -217.531)"/>
</svg>
