<svg xmlns="http://www.w3.org/2000/svg" width="50" height="36" viewBox="0 0 50 36">
  <defs>
    <style>
      .cls-1 {
        fill: #242735;
        fill-rule: evenodd;
      }
    </style>
  </defs>
  <path id="모양_611" data-name="모양 611" class="cls-1" d="M46.415,588.759a6.384,6.384,0,0,0,6.416-6.352,6.268,6.268,0,0,0-.489-2.423l4.211-4.186a6.416,6.416,0,0,0,2.771.646,6.541,6.541,0,0,0,1.284-.128l5.177,7.784a6.277,6.277,0,0,0-1.094,3.549,6.416,6.416,0,0,0,12.831,0,6.254,6.254,0,0,0-1.472-4l6.964-13c0.191,0.017.376,0.057,0.572,0.057a6.352,6.352,0,1,0-6.416-6.352,6.253,6.253,0,0,0,1.472,4l-6.964,13c-0.192-.017-0.377-0.057-0.573-0.057a6.517,6.517,0,0,0-1.185.118l-5.228-7.86a6.266,6.266,0,0,0,1.047-3.462,6.416,6.416,0,0,0-12.83,0,6.222,6.222,0,0,0,.364,2.026l-4.437,4.412A6.364,6.364,0,1,0,46.415,588.759Zm37.17-27.605a3.2,3.2,0,1,1-3.231,3.2A3.218,3.218,0,0,1,83.585,561.154Zm-12.48,23.224a3.27,3.27,0,1,1-3.3,3.27A3.291,3.291,0,0,1,71.105,584.378ZM59.323,566.85a3.243,3.243,0,1,1-3.275,3.243A3.263,3.263,0,0,1,59.323,566.85ZM46.415,579.136a3.271,3.271,0,1,1-3.3,3.272A3.292,3.292,0,0,1,46.415,579.136Z" transform="translate(-40 -558)"/>
</svg>
