<svg xmlns="http://www.w3.org/2000/svg" width="56" height="40" viewBox="0 0 56 40">
  <defs>
    <style>
      .cls-1 {
        fill: #1b1d28;
        fill-rule: evenodd;
      }
    </style>
  </defs>
  <path id="모양_604" data-name="모양 604" class="cls-1" d="M62.387,698.932a1.624,1.624,0,1,1-1.638,1.623,1.633,1.633,0,0,1,1.638-1.623m25.727-10.057a1.624,1.624,0,1,1,1.638-1.624,1.633,1.633,0,0,1-1.638,1.624m0-6.652a5.057,5.057,0,0,0-5.073,5.028,4.931,4.931,0,0,0,.269,1.6l-16.758,8.842a5.086,5.086,0,0,0-8.714.645l-15.056-7.867c-1.59-.829-2.781-3.426-2.655-5.789a3.058,3.058,0,0,1,1.15-2.559,1.476,1.476,0,0,1,1.445.062l0.1,0.052c3.989,2.083,17.045,8.9,17.594,9.152,0.848,0.389,1.32.547,2.765-.132l26.988-13.912a1.231,1.231,0,0,0,.856-1.094,1.285,1.285,0,0,0-.828-1.1c-1.534-.729-3.894-1.824-6.2-2.892-4.919-2.283-10.494-4.87-12.942-6.141a4.208,4.208,0,0,0-4.119.015l-0.589.289c-11.019,5.4-25.766,12.64-26.605,13.146a5.946,5.946,0,0,0-2.555,4.956c-0.188,3.554,1.642,7.26,4.257,8.62l15.92,8.138a5.074,5.074,0,0,0,10.089-.646l17.534-9.419a5.046,5.046,0,1,0,3.12-8.99" transform="translate(-37.188 -665.594)"/>
</svg>
