<svg xmlns="http://www.w3.org/2000/svg" width="46" height="46" viewBox="0 0 46 46">
  <defs>
    <style>
      .cls-1 {
        fill: #1b1d28;
        fill-rule: evenodd;
      }
    </style>
  </defs>
  <path id="모양_612" data-name="모양 612" class="cls-1" d="M88,460.813L72.175,472.382c-0.006.006-.018,0.012-0.024,0.018a0.023,0.023,0,0,0-.012.012,5.311,5.311,0,0,1-7.187-.885,5.305,5.305,0,0,1-7.163.826L42,460.813,65,444Zm-0.056,6.122L86.9,465.506,65,481.516l-21.9-16.01-1.044,1.429L65,483.708ZM65,487.808L43.1,471.8l-1.044,1.429L65,490l22.944-16.773L86.9,471.8Z" transform="translate(-42 -444)"/>
</svg>
