<?xml version="1.0" encoding="utf-8"?>
<!-- Generator: Adobe Illustrator 21.0.0, SVG Export Plug-In . SVG Version: 6.00 Build 0)  -->
<svg version="1.1" id="레이어_1" xmlns="http://www.w3.org/2000/svg" xmlns:xlink="http://www.w3.org/1999/xlink" x="0px"
	 y="0px" viewBox="0 0 110.1 123.1" style="enable-background:new 0 0 110.1 123.1;" xml:space="preserve">
<style type="text/css">
	.st0{clip-path:url(#SVGID_2_);fill:#E53C26;}
	.st1{clip-path:url(#SVGID_2_);fill:#F8C100;}
	.st2{clip-path:url(#SVGID_2_);fill:#557ABC;}
	.st3{clip-path:url(#SVGID_2_);fill:#00A246;}
</style>
<g>
	<defs>
		<rect id="SVGID_1_" y="0" width="110.1" height="123.1"/>
	</defs>
	<clipPath id="SVGID_2_">
		<use xlink:href="#SVGID_1_"  style="overflow:visible;"/>
	</clipPath>
	<path class="st0" d="M51.4,58.8L0.5,112.9c0,0,0,0,0,0c1.6,5.9,6.9,10.2,13.3,10.2c2.5,0,4.9-0.7,7-1.9l0.2-0.1L78.3,88L51.4,58.8z
		"/>
	<path class="st1" d="M103,49.6L103,49.6L78.2,35.2L50.3,60l28,28l24.6-14.2c4.3-2.3,7.2-6.9,7.2-12.1
		C110.1,56.4,107.2,51.9,103,49.6"/>
	<path class="st2" d="M0.5,10.2C0.2,11.4,0,12.5,0,13.8v95.5c0,1.2,0.2,2.4,0.5,3.5l52.7-52.7L0.5,10.2z"/>
	<path class="st3" d="M51.8,61.5l26.4-26.4L20.9,2c-2.1-1.2-4.5-2-7.1-2C7.4,0,2,4.3,0.5,10.2c0,0,0,0,0,0L51.8,61.5z"/>
</g>
</svg>
