<svg xmlns="http://www.w3.org/2000/svg" width="20" height="16" viewBox="0 0 20 16">
  <defs>
    <style>
      .cls-1 {
        fill: #1d67d5;
        fill-rule: evenodd;
      }
    </style>
  </defs>
  <path id="모양_593" data-name="모양 593" class="cls-1" d="M1771.3,40.368h4.34a0.164,0.164,0,0,0,.13-0.057,0.543,0.543,0,0,0,.16-0.231,5.848,5.848,0,0,0,.85-1.614c0.25-1.095-.33-2.825-1.04-4.237a0.151,0.151,0,0,0-.26-0.029l-4.21,5.851-0.07.087A0.155,0.155,0,0,0,1771.3,40.368Zm18.41,0.807-4.93,1.268a0.061,0.061,0,0,0-.06.028c-0.55.52-1.01,0.865-1.11,0.952a1.734,1.734,0,0,1-1.07.346h-1.78V42.154h1.43a0.146,0.146,0,0,0,.1-0.029l0.19-.143a2.073,2.073,0,0,0,.29-0.231,1243.5,1243.5,0,0,0,.46-0.4c0.09-.115.22-0.231,0.32-0.346a1.76,1.76,0,0,0,.23-0.259c0.06-.086.16-0.173,0.22-0.259a1.138,1.138,0,0,1,.17-0.231l0.16-.231a4.711,4.711,0,0,0,.35-0.6,1.5,1.5,0,0,0,.13-0.318c0.04-.116.07-0.2,0.1-0.317a2.693,2.693,0,0,0,.03-0.749,0.539,0.539,0,0,0-.03-0.23,0.3,0.3,0,0,0-.03-0.144,1.9,1.9,0,0,0-.26-0.721c-0.03-.087-0.1-0.173-0.13-0.259-0.13-.173-0.23-0.347-0.36-0.519a0.787,0.787,0,0,0-.13-0.2c-0.09-.116-0.22-0.259-0.32-0.375-0.1-.086-0.16-0.2-0.26-0.288s-0.16-.172-0.26-0.259a11.778,11.778,0,0,0-.94-0.836,0.769,0.769,0,0,0-.16-0.144c-0.23-.173-0.46-0.346-0.62-0.461a1.461,1.461,0,0,1-.22-0.173,1.144,1.144,0,0,1-.2-0.144,0.029,0.029,0,0,0-.03-0.029l-0.2-.057V31.808a0.759,0.759,0,0,0-.25-0.576,0.984,0.984,0,0,0-.65-0.231,0.884,0.884,0,0,0-.91.836v0.951l-0.1-.028-0.26-.058-0.22-.057-1.79-.433a0.079,0.079,0,0,0-.09.116l0.29,0.461a1.508,1.508,0,0,0,.1.173c0.03,0.086.09,0.173,0.12,0.258s0.1,0.145.13,0.231c0.1,0.173.2,0.375,0.3,0.577,0.06,0.144.13,0.288,0.19,0.432a10.47,10.47,0,0,1,.45,1.153,1.4,1.4,0,0,1,.13.374l0.04,0.058c0.06,0.2.09,0.374,0.13,0.576a1.623,1.623,0,0,1,.06.374c0,0.144.03,0.288,0.03,0.432a1.486,1.486,0,0,1,.04.4,4.636,4.636,0,0,1-.1.951c-0.03.086-.07,0.173-0.1,0.26s-0.1.2-.13,0.316a0.767,0.767,0,0,1-.1.2,6.271,6.271,0,0,1-.58,1.038c-0.32.49-.61,0.894-0.84,1.182a0.409,0.409,0,0,1-.1.115,0.131,0.131,0,0,0,.13.2h2.3v1.614h-2.33a1.675,1.675,0,0,1-1.49-.807,1.384,1.384,0,0,1-.16-0.807,0.171,0.171,0,0,0-.17-0.144h-4.76a0.129,0.129,0,0,0-.13.116v0.086A5.151,5.151,0,0,0,1775.38,47h8.46c2.01,0,2.92-2.1,4.12-3.573a5.05,5.05,0,0,1,1.91-1.153,0.133,0.133,0,0,0,.1-0.115V41.232C1789.97,41.146,1789.9,41.088,1789.71,41.175Z" transform="translate(-1769.97 -31)"/>
</svg>
