<svg xmlns="http://www.w3.org/2000/svg" width="21" height="15" viewBox="0 0 21 15">
  <defs>
    <style>
      .cls-1 {
        fill: #fff;
        fill-rule: evenodd;
      }
    </style>
  </defs>
  <path id="모양_593_복사" data-name="모양 593 복사" class="cls-1" d="M1066.36,695.782h4.56a0.194,0.194,0,0,0,.14-0.054,0.532,0.532,0,0,0,.17-0.216,5.354,5.354,0,0,0,.89-1.513c0.27-1.026-.34-2.648-1.09-3.972a0.175,0.175,0,0,0-.28-0.027l-4.42,5.485-0.07.082A0.139,0.139,0,0,0,1066.36,695.782Zm19.33,0.757-5.17,1.188a0.088,0.088,0,0,0-.07.027c-0.58.487-1.05,0.811-1.15,0.892a2,2,0,0,1-1.13.325h-1.87v-1.514h1.5a0.142,0.142,0,0,0,.1-0.027l0.21-.135a2.081,2.081,0,0,0,.3-0.216,1.674,1.674,0,0,0,.24-0.189,1.674,1.674,0,0,0,.24-0.189c0.1-.108.24-0.216,0.34-0.324a1.883,1.883,0,0,0,.24-0.243c0.06-.082.17-0.163,0.23-0.244a1.6,1.6,0,0,1,.17-0.216,1.685,1.685,0,0,0,.17-0.216,4.677,4.677,0,0,0,.38-0.567,2.292,2.292,0,0,0,.14-0.3c0.03-.108.06-0.189,0.1-0.3a2.371,2.371,0,0,0,.03-0.7,0.48,0.48,0,0,0-.03-0.216,0.215,0.215,0,0,0-.04-0.135,1.591,1.591,0,0,0-.27-0.675c-0.03-.081-0.1-0.162-0.13-0.243-0.14-.163-0.24-0.325-0.38-0.487a0.743,0.743,0,0,0-.14-0.188c-0.1-.109-0.23-0.244-0.34-0.352-0.1-.081-0.17-0.189-0.27-0.27s-0.17-.162-0.27-0.243a11.832,11.832,0,0,0-.99-0.784,0.629,0.629,0,0,0-.17-0.135c-0.24-.162-0.47-0.324-0.64-0.432a1.291,1.291,0,0,1-.24-0.162,2.055,2.055,0,0,1-.21-0.135,0.029,0.029,0,0,0-.03-0.027l-0.2-.054v-1.3a0.691,0.691,0,0,0-.28-0.54,1.094,1.094,0,0,0-.68-0.216,0.889,0.889,0,0,0-.95.784v0.891l-0.1-.026-0.27-.055-0.24-.054-1.87-.405a0.086,0.086,0,0,0-.11.108l0.31,0.432c0.03,0.054.07,0.108,0.1,0.163,0.04,0.081.1,0.162,0.14,0.242s0.1,0.136.13,0.217a5.845,5.845,0,0,1,.31.54c0.07,0.135.14,0.27,0.2,0.405a9.535,9.535,0,0,1,.48,1.081,1.759,1.759,0,0,1,.14.351l0.03,0.054a3.589,3.589,0,0,1,.14.541,1.457,1.457,0,0,1,.07.351c0,0.135.03,0.27,0.03,0.4a1.725,1.725,0,0,1,.03.378,3.557,3.557,0,0,1-.1.892c-0.03.081-.07,0.162-0.1,0.243s-0.1.189-.14,0.3a0.681,0.681,0,0,1-.1.189,5.99,5.99,0,0,1-.61.974c-0.34.459-.65,0.837-0.89,1.107a0.285,0.285,0,0,1-.1.108c-0.07.081,0,.19,0.14,0.19h2.41v1.512h-2.45a1.818,1.818,0,0,1-1.56-.756,1.174,1.174,0,0,1-.17-0.756,0.167,0.167,0,0,0-.17-0.136h-5a0.137,0.137,0,0,0-.14.108v0.081c0,2.513,2.55,4.539,5.68,4.539h8.88c2.11,0,3.07-1.972,4.33-3.35a5.415,5.415,0,0,1,2-1.081,0.127,0.127,0,0,0,.11-0.108v-0.864C1085.97,696.512,1085.9,696.458,1085.69,696.539Z" transform="translate(-1064.97 -687)"/>
</svg>
