<svg xmlns="http://www.w3.org/2000/svg" width="6" height="14" viewBox="0 0 6 14">
  <defs>
    <style>
      .cls-1 {
        fill: #1f2329;
        fill-rule: evenodd;
      }
    </style>
  </defs>
  <path id="모양_580" data-name="모양 580" class="cls-1" d="M1508.43,1107a1.535,1.535,0,1,0,1.66,1.53A1.594,1.594,0,0,0,1508.43,1107Zm-0.62,9.63h0l0.48-1.54v-0.01l0.62-1.95a3.2,3.2,0,0,0,.19-0.92,1.25,1.25,0,0,0-.44-0.97,1.714,1.714,0,0,0-1.15-.38c-1.2,0-2.34.85-3.38,2.52a0.346,0.346,0,0,0,.08.41,0.219,0.219,0,0,1,.05.03h0.02c0.01,0.01.02,0.01,0.03,0.02h0.14l0.01-.01a0.142,0.142,0,0,0,.06-0.02c0.01,0,.01,0,0.01-0.01a0.413,0.413,0,0,0,.11-0.07v-0.01a0.151,0.151,0,0,0,.04-0.04h0.01a0.147,0.147,0,0,1,.02-0.04h0.01a0.035,0.035,0,0,1,.01-0.02c0-.01,0-0.01.01-0.01v-0.01a3.821,3.821,0,0,1,1.05-1.1,0.4,0.4,0,0,1,.25-0.1,0.1,0.1,0,0,1,.07.04,0.135,0.135,0,0,1,.05.09,3.614,3.614,0,0,1-.15.71l-0.63,1.99h0l-0.48,1.54-0.01.01-0.61,1.96a2.788,2.788,0,0,0-.19.92,1.229,1.229,0,0,0,.44.96,1.7,1.7,0,0,0,1.15.38c1.2,0,2.34-.85,3.38-2.52a0.34,0.34,0,0,0-.09-0.41,0.219,0.219,0,0,0-.05-0.03h-0.01a0.037,0.037,0,0,0-.03-0.01,0.035,0.035,0,0,1-.02-0.01h-0.06a0.2,0.2,0,0,0-.07.01h0c-0.02.01-.05,0.01-0.07,0.02v0.01a0.444,0.444,0,0,0-.11.08h0a0.151,0.151,0,0,0-.04.04h-0.01a0.142,0.142,0,0,0-.02.04h-0.01c0,0.01-.01.02-0.01,0.03h-0.01v0.01a4.04,4.04,0,0,1-1.05,1.11,0.454,0.454,0,0,1-.26.09,0.082,0.082,0,0,1-.06-0.04,0.106,0.106,0,0,1-.05-0.09,3.009,3.009,0,0,1,.15-0.71Z" transform="translate(-1504.09 -1107)"/>
</svg>
