<svg xmlns="http://www.w3.org/2000/svg" width="14" height="14" viewBox="0 0 14 14">
  <defs>
    <style>
      .cls-1 {
        fill: #fff;
        fill-rule: evenodd;
      }
    </style>
  </defs>
  <path id="모양_609" data-name="모양 609" class="cls-1" d="M695.707,40.486h-1.085a0.293,0.293,0,0,0-.293.293v4.18a0.37,0.37,0,0,1-.37.37h-9.918a0.37,0.37,0,0,1-.37-0.37V35.041a0.371,0.371,0,0,1,.37-0.371H688a0.292,0.292,0,0,0,.292-0.292V33.292A0.293,0.293,0,0,0,688,33h-3.933a2.1,2.1,0,0,0-.8.156A2.03,2.03,0,0,0,682,35.041v9.9a2.116,2.116,0,0,0,.156.8A2.03,2.03,0,0,0,684.041,47h9.918A2.041,2.041,0,0,0,696,44.959v-4.18A0.293,0.293,0,0,0,695.707,40.486Zm-4.085-5.961h1.758l-0.269.269-5.591,5.59a0.1,0.1,0,0,0,0,.142L688.4,41.4a0.1,0.1,0,0,0,.142,0l5.591-5.591,0.268-.269V37.3a0.1,0.1,0,0,0,.1.1h1.24a0.1,0.1,0,0,0,.1-0.1V33.184a0.1,0.1,0,0,0-.1-0.1h-4.117a0.1,0.1,0,0,0-.1.1v1.24A0.1,0.1,0,0,0,691.622,34.525Z" transform="translate(-682 -33)"/>
</svg>
