<?xml version="1.0" encoding="utf-8"?>
<!-- Generator: Adobe Illustrator 21.0.0, SVG Export Plug-In . SVG Version: 6.00 Build 0)  -->
<svg version="1.1" id="레이어_1" xmlns="http://www.w3.org/2000/svg" xmlns:xlink="http://www.w3.org/1999/xlink" x="0px"
	 y="0px" viewBox="0 0 23 24" style="enable-background:new 0 0 23 24;" xml:space="preserve">
<style type="text/css">
	.st0{fill:#4285F4;}
	.st1{fill:#34A853;}
	.st2{fill:#FBBC05;}
	.st3{fill:#EB4335;}
</style>
<g>
	<path class="st0" d="M23,12.3c0-1-0.1-1.7-0.2-2.4h-11v4.4h6.5c-0.1,1.1-0.8,2.7-2.4,3.8l0,0.1l3.5,2.7l0.2,0
		C21.7,18.8,23,15.8,23,12.3"/>
	<path class="st1" d="M11.7,23.7c3.2,0,5.8-1,7.8-2.8L15.8,18c-1,0.7-2.3,1.2-4.1,1.2c-3.1,0-5.7-2-6.7-4.9l-0.1,0l-3.6,2.8l0,0.1
		C3.2,21.1,7.1,23.7,11.7,23.7"/>
	<path class="st2" d="M5.1,14.3c-0.2-0.7-0.4-1.5-0.4-2.3c0-0.8,0.1-1.6,0.4-2.3l0-0.2L1.4,6.7L1.3,6.7C0.5,8.3,0,10.1,0,12
		s0.5,3.7,1.3,5.3L5.1,14.3"/>
	<path class="st3" d="M11.7,4.8c2.2,0,3.7,1,4.5,1.7l3.3-3.2c-2-1.9-4.7-3.1-7.8-3.1c-4.6,0-8.6,2.6-10.5,6.5L5,9.7
		C6,6.8,8.6,4.8,11.7,4.8"/>
</g>
</svg>
