<?xml version="1.0" encoding="utf-8"?>
<!-- Generator: Adobe Illustrator 21.0.0, SVG Export Plug-In . SVG Version: 6.00 Build 0)  -->
<svg version="1.1" id="Layer_1" xmlns="http://www.w3.org/2000/svg" xmlns:xlink="http://www.w3.org/1999/xlink" x="0px" y="0px"
	 viewBox="0 0 512 512" style="enable-background:new 0 0 512 512;" xml:space="preserve">
<style type="text/css">
	.st0{fill:#3D5A98;}
	.st1{fill:#FFFFFF;}
</style>
<path class="st0" d="M512,432c0,44.2-35.8,80-80,80H80c-44.2,0-80-35.8-80-80V80C0,35.8,35.8,0,80,0h352c44.2,0,80,35.8,80,80V432z"
	/>
<path id="f" class="st1" d="M335.3,512V313.7h66.6l10-77.3h-76.5v-49.3c0-22.4,6.2-37.6,38.3-37.6l40.9,0V80.4
	c-7.1-0.9-31.4-3-59.6-3c-59,0-99.4,36-99.4,102.1v57h-66.7v77.3h66.7V512H335.3z"/>
</svg>
