<svg xmlns="http://www.w3.org/2000/svg" width="28" height="26" viewBox="0 0 28 26">
  <defs>
    <style>
      .cls-1 {
        fill: #1b1d28;
        fill-rule: evenodd;
      }
    </style>
  </defs>
  <path id="모양_603_복사_2" data-name="모양 603 복사 2" class="cls-1" d="M1076.24,466.365a9.066,9.066,0,0,1,2.92-.452h0a9.169,9.169,0,0,1,2.92.452h0.01s1.91-2.89,1.09-3.394-2.04.687-4.02,0.689-3.21-1.194-4.03-.689,1.1,3.394,1.1,3.394h0.01Zm5.85,1.754a7.656,7.656,0,0,0-5.88,0,10.33,10.33,0,0,0-5.28,9.978c0.18-.027.37-0.04,0.57-0.053,0.18,0,.34-0.014.51-0.014a5.5,5.5,0,0,1,3.7,1.2h4.71a3.953,3.953,0,0,1,2.48.84c0.07,0.054.13,0.12,0.23,0.214l2.41-1.574a3.907,3.907,0,0,1,1.83-.614A10.33,10.33,0,0,0,1082.09,468.119Zm-2.21,8.964v0.707h-1.43V477.1a1.938,1.938,0,0,1-1.29-1.2l1.37-.467a0.687,0.687,0,0,0,1.31-.24c0-.16,0-0.534-0.87-0.734a2.145,2.145,0,0,1-1.93-2.094,1.99,1.99,0,0,1,1.41-1.881v-0.72h1.43v0.707a2,2,0,0,1,1.28,1.187l-1.37.467a0.7,0.7,0,0,0-1.32.24c0,0.173,0,.533.88,0.747a2.135,2.135,0,0,1,1.93,2.081A2.01,2.01,0,0,1,1079.88,477.083Zm10.12,4.771a2.21,2.21,0,0,1-1,1.822l-6.62,4.369a3.744,3.744,0,0,1-2,.578h-12.45l0.01-6.167a3.718,3.718,0,0,1,3.65-2.81,4.106,4.106,0,0,1,3.5,1.18h5.34a2.232,2.232,0,0,1,.38.031,2.287,2.287,0,0,1,1.04.459c0.04,0.031.08,0.071,0.13,0.112a1.838,1.838,0,0,1,.52,1.234,1.989,1.989,0,0,1-2.04,1.931h-2.96a0.813,0.813,0,0,0-.83.8h0a0.814,0.814,0,0,0,.83.8h2.95a3.6,3.6,0,0,0,3.7-3.307,3.435,3.435,0,0,0-.15-1.183l-0.02-.044,2.48-1.613a2.345,2.345,0,0,1,3.16.592A2.191,2.191,0,0,1,1090,481.854Zm-24.43-.909h-2.84a0.721,0.721,0,0,0-.73.709v6.481a0.721,0.721,0,0,0,.73.708h2.84a0.721,0.721,0,0,0,.73-0.708v-6.481A0.721,0.721,0,0,0,1065.57,480.945Zm-1.04,6.881a0.694,0.694,0,1,1,.72-0.693A0.705,0.705,0,0,1,1064.53,487.826Z" transform="translate(-1062 -462.844)"/>
</svg>
