<svg xmlns="http://www.w3.org/2000/svg" width="21.438" height="24.656" viewBox="0 0 21.438 24.656">
  <defs>
    <style>
      .cls-1 {
        fill: #1b1d28;
        fill-rule: evenodd;
      }
    </style>
  </defs>
  <path id="모양_3" data-name="모양 3" class="cls-1" d="M843.424,537.053c-0.842,2.341-3.363,6.486-5.959,6.531-1.723.032-2.277-.979-4.246-0.979s-2.583.948-4.211,1.009c-2.756.1-7.008-5.982-7.008-11.288,0-4.875,3.543-7.29,6.639-7.335,1.66-.028,3.229,1.073,4.241,1.073s2.921-1.324,4.923-1.13a6.1,6.1,0,0,1,4.7,2.44C838.5,529.882,839.122,535.125,843.424,537.053Zm-5.594-18.078c-3.027.117-5.5,3.161-5.153,5.679C835.475,524.862,838.16,521.856,837.83,518.975Z" transform="translate(-822 -518.969)"/>
</svg>
