<svg xmlns="http://www.w3.org/2000/svg" width="28" height="16" viewBox="0 0 28 16">
  <defs>
    <style>
      .cls-1 {
        fill: #fff;
        fill-rule: evenodd;
      }
    </style>
  </defs>
  <path id="모양_598" data-name="모양 598" class="cls-1" d="M56.792,295a7.9,7.9,0,1,1-7.9-8,7.95,7.95,0,0,1,7.9,8m8.667,0c0,4.159-1.769,7.531-3.95,7.531s-3.95-3.372-3.95-7.531,1.769-7.531,3.95-7.531,3.95,3.372,3.95,7.531M69,295c0,3.726-.622,6.748-1.389,6.748s-1.389-3.022-1.389-6.748,0.622-6.747,1.389-6.747S69,291.273,69,295" transform="translate(-41 -287)"/>
</svg>
